<svg xmlns="http://www.w3.org/2000/svg" viewBox="0 0 100 112">
  <defs>
    <linearGradient id="m" x1="20%" y1="0%" x2="80%" y2="100%">
      <stop offset="0%" stop-color="#f1a7d2"/>
      <stop offset="100%" stop-color="#7b3e5f"/>
    </linearGradient>
    <filter id="shadow" x="-30%" y="-30%" width="160%" height="160%">
      <feDropShadow dx="0" dy="8" stdDeviation="5" flood-color="#000" flood-opacity=".5"/>
    </filter>
  </defs>
  <ellipse cx="50" cy="101" rx="31" ry="7" fill="#050706" opacity=".45"/>
  <g filter="url(#shadow)">
    <path d="M18 78 C19 42 36 16 58 20 L82 42 L73 79 C58 101 32 101 18 78 Z" fill="url(#m)" stroke="#231816" stroke-width="4" stroke-linejoin="round"/>
    <path d="M25 36 L8 22 M73 34 L92 18" stroke="#2a161b" stroke-width="6" stroke-linecap="round"/><path d="M28 84 L17 103 M72 84 L83 103" stroke="#2a161b" stroke-width="5" stroke-linecap="round"/>
    
    <circle cx="38" cy="53" r="5" fill="#211211"/>
    <circle cx="63" cy="53" r="5" fill="#211211"/>
    <path d="M35 75 C45 68 55 68 66 75" fill="none" stroke="#211211" stroke-width="4" stroke-linecap="round"/>
  </g>
</svg>